<svg width="270" height="215" viewBox="0 0 270 215" fill="none" xmlns="http://www.w3.org/2000/svg">
<path d="M270 107.5C270 166.871 222.094 215 163 215C103.906 215 56 166.871 56 107.5C56 48.1294 103.906 0 163 0C222.094 0 270 48.1294 270 107.5Z" fill="#60A166"/>
<path opacity="0.99" d="M214 107.5C214 166.871 166.094 215 107 215C47.9055 215 0 166.871 0 107.5C0 48.1294 47.9055 0 107 0C166.094 0 214 48.1294 214 107.5Z" fill="#C86868"/>
<path fill-rule="evenodd" clip-rule="evenodd" d="M135 211.564C180.514 199.199 214 157.419 214 107.782C214 58.1445 180.514 16.3647 135 4C89.4857 16.3647 56 58.1445 56 107.782C56 157.419 89.4857 199.199 135 211.564Z" fill="#415931"/>
<path d="M84.9297 100.477C85.75 100.477 86.5052 100.535 87.1953 100.652C87.8984 100.757 88.4648 100.874 88.8945 101.004L88.0938 106.414C87.3776 106.245 86.6419 106.121 85.8867 106.043C85.1445 105.952 84.4349 105.906 83.7578 105.906C83.0547 105.906 82.4167 105.971 81.8438 106.102C81.2839 106.219 80.7826 106.401 80.3398 106.648C79.806 106.935 79.3503 107.299 78.9727 107.742C78.5951 108.185 78.2826 108.706 78.0352 109.305V122H72.6055V100.867H77.6641L77.8789 103.855L77.918 104.324C78.7773 103.126 79.806 102.189 81.0039 101.512C82.2018 100.822 83.5104 100.477 84.9297 100.477ZM104.031 122.391C102.404 122.391 100.926 122.124 99.5977 121.59C98.2695 121.056 97.1302 120.327 96.1797 119.402C95.2292 118.491 94.4935 117.417 93.9727 116.18C93.4648 114.93 93.2109 113.595 93.2109 112.176V111.395C93.2109 109.78 93.4648 108.309 93.9727 106.98C94.4805 105.639 95.1901 104.487 96.1016 103.523C97.013 102.56 98.0938 101.811 99.3438 101.277C100.594 100.743 101.954 100.477 103.426 100.477C104.949 100.477 106.303 100.73 107.488 101.238C108.686 101.733 109.702 102.436 110.535 103.348C111.355 104.259 111.98 105.359 112.41 106.648C112.84 107.924 113.055 109.337 113.055 110.887V113.191H98.7188V113.25C98.901 114.096 99.1354 114.78 99.4219 115.301C99.7083 115.809 100.092 116.271 100.574 116.688C101.069 117.117 101.635 117.449 102.273 117.684C102.911 117.918 103.608 118.035 104.363 118.035C105.431 118.035 106.466 117.833 107.469 117.43C108.471 117.026 109.285 116.421 109.91 115.613L112.625 118.543C111.935 119.52 110.841 120.405 109.344 121.199C107.846 121.993 106.076 122.391 104.031 122.391ZM103.387 104.871C102.775 104.871 102.215 104.982 101.707 105.203C101.199 105.411 100.757 105.717 100.379 106.121C99.9883 106.525 99.6628 107.007 99.4023 107.566C99.1419 108.126 98.9466 108.751 98.8164 109.441H107.723V109.012C107.723 108.439 107.618 107.898 107.41 107.391C107.202 106.883 106.915 106.44 106.551 106.062C106.186 105.698 105.737 105.411 105.203 105.203C104.682 104.982 104.077 104.871 103.387 104.871ZM118.934 92H130.75V117.586H136.805V122H118.934V117.586H125.262V96.4336H118.934V92ZM155.027 122C154.897 121.74 154.786 121.44 154.695 121.102C154.604 120.763 154.526 120.405 154.461 120.027C154.161 120.353 153.816 120.659 153.426 120.945C153.035 121.232 152.605 121.479 152.137 121.688C151.655 121.909 151.128 122.078 150.555 122.195C149.982 122.326 149.363 122.391 148.699 122.391C147.618 122.391 146.622 122.234 145.711 121.922C144.812 121.609 144.038 121.173 143.387 120.613C142.736 120.053 142.228 119.389 141.863 118.621C141.499 117.84 141.316 116.993 141.316 116.082C141.316 114.91 141.544 113.875 142 112.977C142.456 112.065 143.139 111.316 144.051 110.73C144.871 110.197 145.88 109.793 147.078 109.52C148.289 109.233 149.676 109.09 151.238 109.09H154.266V107.84C154.266 107.345 154.188 106.902 154.031 106.512C153.875 106.108 153.641 105.763 153.328 105.477C153.003 105.177 152.592 104.949 152.098 104.793C151.616 104.624 151.049 104.539 150.398 104.539C149.826 104.539 149.331 104.611 148.914 104.754C148.497 104.884 148.159 105.073 147.898 105.32C147.664 105.542 147.488 105.809 147.371 106.121C147.267 106.434 147.215 106.779 147.215 107.156H141.785C141.785 106.258 141.98 105.405 142.371 104.598C142.775 103.79 143.361 103.081 144.129 102.469C144.884 101.857 145.809 101.375 146.902 101.023C148.009 100.659 149.272 100.477 150.691 100.477C151.967 100.477 153.152 100.633 154.246 100.945C155.353 101.258 156.31 101.72 157.117 102.332C157.924 102.944 158.556 103.719 159.012 104.656C159.467 105.581 159.695 106.655 159.695 107.879V116.941C159.695 118.074 159.767 119.012 159.91 119.754C160.053 120.496 160.262 121.134 160.535 121.668V122H155.027ZM149.852 118.191C150.398 118.191 150.906 118.126 151.375 117.996C151.844 117.866 152.267 117.697 152.645 117.488C153.022 117.28 153.348 117.046 153.621 116.785C153.895 116.512 154.109 116.238 154.266 115.965V112.332H151.492C150.646 112.332 149.923 112.417 149.324 112.586C148.725 112.742 148.237 112.964 147.859 113.25C147.482 113.549 147.202 113.908 147.02 114.324C146.837 114.728 146.746 115.171 146.746 115.652C146.746 116.03 146.811 116.382 146.941 116.707C147.085 117.02 147.286 117.286 147.547 117.508C147.807 117.716 148.126 117.885 148.504 118.016C148.895 118.133 149.344 118.191 149.852 118.191ZM165.281 111.277C165.281 109.676 165.464 108.211 165.828 106.883C166.206 105.555 166.753 104.415 167.469 103.465C168.185 102.514 169.051 101.779 170.066 101.258C171.095 100.737 172.267 100.477 173.582 100.477C174.689 100.477 175.659 100.678 176.492 101.082C177.339 101.473 178.087 102.033 178.738 102.762V92H184.188V122H179.285L179.012 119.793C178.348 120.613 177.566 121.251 176.668 121.707C175.77 122.163 174.728 122.391 173.543 122.391C172.254 122.391 171.095 122.124 170.066 121.59C169.051 121.043 168.191 120.294 167.488 119.344C166.772 118.393 166.225 117.267 165.848 115.965C165.47 114.65 165.281 113.224 165.281 111.688V111.277ZM170.711 111.688C170.711 112.573 170.783 113.4 170.926 114.168C171.082 114.923 171.329 115.581 171.668 116.141C172.007 116.714 172.443 117.163 172.977 117.488C173.51 117.814 174.161 117.977 174.93 117.977C175.867 117.977 176.642 117.775 177.254 117.371C177.879 116.967 178.374 116.414 178.738 115.711V107.156C178.374 106.44 177.885 105.887 177.273 105.496C176.661 105.092 175.893 104.891 174.969 104.891C174.201 104.891 173.543 105.06 172.996 105.398C172.462 105.724 172.026 106.173 171.688 106.746C171.349 107.332 171.102 108.016 170.945 108.797C170.789 109.565 170.711 110.392 170.711 111.277V111.688ZM191.316 100.867H202.82V117.586H208.543V122H191.316V117.586H197.332V105.301H191.316V100.867ZM196.941 95.457C196.941 95.0404 197.013 94.6562 197.156 94.3047C197.312 93.9401 197.527 93.6276 197.801 93.3672C198.074 93.1198 198.4 92.9245 198.777 92.7812C199.168 92.638 199.598 92.5664 200.066 92.5664C201.03 92.5664 201.792 92.8398 202.352 93.3867C202.924 93.9206 203.211 94.6107 203.211 95.457C203.211 96.3034 202.924 97 202.352 97.5469C201.792 98.0807 201.03 98.3477 200.066 98.3477C199.598 98.3477 199.168 98.276 198.777 98.1328C198.4 97.9896 198.074 97.7878 197.801 97.5273C197.527 97.2799 197.312 96.9805 197.156 96.6289C197.013 96.2643 196.941 95.8737 196.941 95.457ZM215.148 122V104.871H209.602V100.867H215.148V99.7148C215.148 98.3216 215.37 97.0911 215.812 96.0234C216.255 94.9557 216.887 94.0573 217.707 93.3281C218.527 92.599 219.523 92.0521 220.695 91.6875C221.867 91.3099 223.176 91.1211 224.621 91.1211C225.077 91.1211 225.513 91.1406 225.93 91.1797C226.359 91.2057 226.776 91.2448 227.18 91.2969C227.583 91.349 227.987 91.4076 228.391 91.4727C228.807 91.5378 229.237 91.6094 229.68 91.6875L229.328 95.9453C228.833 95.8411 228.273 95.75 227.648 95.6719C227.023 95.5938 226.288 95.5547 225.441 95.5547C224.53 95.5547 223.755 95.6589 223.117 95.8672C222.479 96.0755 221.971 96.3815 221.594 96.7852C221.255 97.1237 221.001 97.5404 220.832 98.0352C220.676 98.5299 220.598 99.0898 220.598 99.7148V100.867H228.215V104.871H220.598V122H215.148ZM237.972 122V104.871H232.425V100.867H237.972V99.7148C237.972 98.3216 238.193 97.0911 238.636 96.0234C239.079 94.9557 239.71 94.0573 240.53 93.3281C241.351 92.599 242.347 92.0521 243.519 91.6875C244.691 91.3099 245.999 91.1211 247.445 91.1211C247.9 91.1211 248.336 91.1406 248.753 91.1797C249.183 91.2057 249.599 91.2448 250.003 91.2969C250.407 91.349 250.81 91.4076 251.214 91.4727C251.631 91.5378 252.06 91.6094 252.503 91.6875L252.152 95.9453C251.657 95.8411 251.097 95.75 250.472 95.6719C249.847 95.5938 249.111 95.5547 248.265 95.5547C247.353 95.5547 246.579 95.6589 245.941 95.8672C245.303 96.0755 244.795 96.3815 244.417 96.7852C244.079 97.1237 243.825 97.5404 243.655 98.0352C243.499 98.5299 243.421 99.0898 243.421 99.7148V100.867H251.038V104.871H243.421V122H237.972Z" fill="white"/>
</svg>
